MutatorSansInstance_400-400.ufo
<glyph name="A" format="2">
  <advance width="816"/>
  <unicode hex="0041"/>
  <outline>
    <contour>
      <point x="27" y="0" type="line"/>
      <point x="163" y="0" type="line"/>
      <point x="400" y="740" type="line"/>
      <point x="282" y="740" type="line"/>
    </contour>
    <contour>
      <point x="148" y="161" type="line"/>
      <point x="636" y="161" type="line"/>
      <point x="636" y="267" type="line"/>
      <point x="148" y="267" type="line"/>
    </contour>
    <contour>
      <point x="604" y="0" type="line"/>
      <point x="790" y="0" type="line"/>
      <point x="534" y="740" type="line"/>
      <point x="360" y="740" type="line"/>
    </contour>
    <contour>
      <point x="313" y="613" type="line"/>
      <point x="482" y="613" type="line"/>
      <point x="482" y="740" type="line"/>
      <point x="313" y="740" type="line"/>
    </contour>
  </outline>
</glyph>
<glyph name="B" format="2">
  <advance width="819"/>
  <unicode hex="0042"/>
  <outline>
    <contour>
      <point x="67" y="0" type="line"/>
      <point x="233" y="0" type="line"/>
      <point x="233" y="740" type="line"/>
      <point x="67" y="740" type="line"/>
    </contour>
    <contour>
      <point x="202" y="337" type="line"/>
      <point x="495" y="337" type="line" smooth="yes"/>
      <point x="575" y="337"/>
      <point x="616" y="296"/>
      <point x="616" y="226" type="curve" smooth="yes"/>
      <point x="616" y="156"/>
      <point x="574" y="117"/>
      <point x="491" y="117" type="curve" smooth="yes"/>
      <point x="202" y="117" type="line"/>
      <point x="202" y="0" type="line"/>
      <point x="525" y="0" type="line" smooth="yes"/>
      <point x="721" y="0"/>
      <point x="780" y="86"/>
      <point x="780" y="202" type="curve" smooth="yes"/>
      <point x="780" y="306"/>
      <point x="725" y="376"/>
      <point x="615" y="391" type="curve"/>
      <point x="610" y="360" type="line"/>
      <point x="695" y="378"/>
      <point x="751" y="441"/>
      <point x="751" y="535" type="curve" smooth="yes"/>
      <point x="751" y="655"/>
      <point x="690" y="740"/>
      <point x="495" y="740" type="curve" smooth="yes"/>
      <point x="202" y="740" type="line"/>
      <point x="202" y="628" type="line"/>
      <point x="467" y="628" type="line" smooth="yes"/>
      <point x="554" y="628"/>
      <point x="590" y="588"/>
      <point x="590" y="520" type="curve" smooth="yes"/>
      <point x="590" y="449"/>
      <point x="548" y="410"/>
      <point x="467" y="410" type="curve" smooth="yes"/>
      <point x="202" y="410" type="line"/>
    </contour>
  </outline>
</glyph>
<glyph name="C" format="2">
  <advance width="909"/>
  <unicode hex="0043"/>
  <outline>
    <contour>
      <point x="699" y="310" type="line"/>
      <point x="682" y="169"/>
      <point x="601" y="117"/>
      <point x="476" y="117" type="curve" smooth="yes"/>
      <point x="443" y="117" type="line" smooth="yes"/>
      <point x="304" y="117"/>
      <point x="219" y="186"/>
      <point x="219" y="372" type="curve" smooth="yes"/>
      <point x="219" y="556"/>
      <point x="304" y="623"/>
      <point x="443" y="623" type="curve" smooth="yes"/>
      <point x="476" y="623" type="line" smooth="yes"/>
      <point x="600" y="623"/>
      <point x="681" y="574"/>
      <point x="699" y="436" type="curve"/>
      <point x="861" y="454" type="line"/>
      <point x="833" y="659"/>
      <point x="694" y="750"/>
      <point x="486" y="750" type="curve" smooth="yes"/>
      <point x="432" y="750" type="line" smooth="yes"/>
      <point x="196" y="750"/>
      <point x="48" y="636"/>
      <point x="48" y="372" type="curve" smooth="yes"/>
      <point x="48" y="107"/>
      <point x="196" y="-10"/>
      <point x="432" y="-10" type="curve" smooth="yes"/>
      <point x="486" y="-10" type="line" smooth="yes"/>
      <point x="695" y="-10"/>
      <point x="834" y="84"/>
      <point x="861" y="293" type="curve"/>
    </contour>
  </outline>
</glyph>
<glyph name="D" format="2">
  <advance width="830"/>
  <unicode hex="0044"/>
  <outline>
    <contour>
      <point x="67" y="0" type="line"/>
      <point x="228" y="0" type="line"/>
      <point x="228" y="740" type="line"/>
      <point x="67" y="740" type="line"/>
    </contour>
    <contour>
      <point x="196" y="617" type="line"/>
      <point x="372" y="617" type="line" smooth="yes"/>
      <point x="518" y="617"/>
      <point x="611" y="556"/>
      <point x="611" y="372" type="curve" smooth="yes"/>
      <point x="611" y="186"/>
      <point x="518" y="123"/>
      <point x="372" y="123" type="curve" smooth="yes"/>
      <point x="195" y="123" type="line"/>
      <point x="195" y="0" type="line"/>
      <point x="382" y="0" type="line" smooth="yes"/>
      <point x="625" y="0"/>
      <point x="781" y="109"/>
      <point x="781" y="372" type="curve" smooth="yes"/>
      <point x="781" y="634"/>
      <point x="625" y="740"/>
      <point x="382" y="740" type="curve" smooth="yes"/>
      <point x="196" y="740" type="line"/>
    </contour>
  </outline>
</glyph>
<glyph name="E" format="2">
  <advance width="738"/>
  <unicode hex="0045"/>
  <anchor x="370" y="784" name="top"/>
  <outline>
    <contour>
      <point x="70" y="0" type="line"/>
      <point x="230" y="0" type="line"/>
      <point x="230" y="740" type="line"/>
      <point x="70" y="740" type="line"/>
    </contour>
    <contour>
      <point x="118" y="610" type="line"/>
      <point x="678" y="610" type="line"/>
      <point x="678" y="740" type="line"/>
      <point x="118" y="740" type="line"/>
    </contour>
    <contour>
      <point x="118" y="0" type="line"/>
      <point x="678" y="0" type="line"/>
      <point x="678" y="130" type="line"/>
      <point x="118" y="130" type="line"/>
    </contour>
    <contour>
      <point x="118" y="326" type="line"/>
      <point x="600" y="326" type="line"/>
      <point x="600" y="416" type="line"/>
      <point x="118" y="416" type="line"/>
    </contour>
  </outline>
</glyph>
<glyph name="F" format="2">
  <advance width="748"/>
  <unicode hex="0046"/>
  <outline>
    <contour>
      <point x="67" y="0" type="line"/>
      <point x="235" y="0" type="line"/>
      <point x="235" y="740" type="line"/>
      <point x="67" y="740" type="line"/>
    </contour>
    <contour>
      <point x="118" y="615" type="line"/>
      <point x="681" y="615" type="line"/>
      <point x="681" y="740" type="line"/>
      <point x="118" y="740" type="line"/>
    </contour>
    <contour>
      <point x="118" y="287" type="line"/>
      <point x="647" y="287" type="line"/>
      <point x="647" y="396" type="line"/>
      <point x="118" y="396" type="line"/>
    </contour>
  </outline>
</glyph>
<glyph name="G" format="2">
  <advance width="937"/>
  <unicode hex="0047"/>
  <outline>
    <contour>
      <point x="406" y="304" type="line"/>
      <point x="728" y="304" type="line"/>
      <point x="728" y="216" type="line"/>
      <point x="792" y="0" type="line"/>
      <point x="872" y="0" type="line"/>
      <point x="872" y="365" type="line"/>
      <point x="406" y="365" type="line"/>
    </contour>
    <contour>
      <point x="716" y="319" type="line"/>
      <point x="699" y="171"/>
      <point x="616" y="117"/>
      <point x="488" y="117" type="curve" smooth="yes"/>
      <point x="443" y="117" type="line" smooth="yes"/>
      <point x="304" y="117"/>
      <point x="219" y="186"/>
      <point x="219" y="372" type="curve" smooth="yes"/>
      <point x="219" y="556"/>
      <point x="308" y="623"/>
      <point x="450" y="623" type="curve" smooth="yes"/>
      <point x="495" y="623" type="line" smooth="yes"/>
      <point x="620" y="623"/>
      <point x="698" y="574"/>
      <point x="716" y="436" type="curve"/>
      <point x="870" y="454" type="line"/>
      <point x="842" y="659"/>
      <point x="708" y="750"/>
      <point x="502" y="750" type="curve" smooth="yes"/>
      <point x="436" y="750" type="line" smooth="yes"/>
      <point x="199" y="750"/>
      <point x="48" y="636"/>
      <point x="48" y="372" type="curve" smooth="yes"/>
      <point x="48" y="107"/>
      <point x="196" y="-10"/>
      <point x="432" y="-10" type="curve" smooth="yes"/>
      <point x="469" y="-10" type="line" smooth="yes"/>
      <point x="677" y="-10"/>
      <point x="808" y="86"/>
      <point x="831" y="302" type="curve"/>
    </contour>
  </outline>
</glyph>
<glyph name="H" format="2">
  <advance width="837"/>
  <unicode hex="0048"/>
  <outline>
    <contour>
      <point x="67" y="0" type="line"/>
      <point x="235" y="0" type="line"/>
      <point x="235" y="740" type="line"/>
      <point x="67" y="740" type="line"/>
    </contour>
    <contour>
      <point x="134" y="306" type="line"/>
      <point x="705" y="306" type="line"/>
      <point x="705" y="432" type="line"/>
      <point x="134" y="432" type="line"/>
    </contour>
    <contour>
      <point x="602" y="0" type="line"/>
      <point x="770" y="0" type="line"/>
      <point x="770" y="740" type="line"/>
      <point x="602" y="740" type="line"/>
    </contour>
  </outline>
</glyph>
<glyph name="I" format="2">
  <advance width="636"/>
  <unicode hex="0049"/>
  <outline>
    <contour>
      <point x="235" y="0" type="line"/>
      <point x="403" y="0" type="line"/>
      <point x="403" y="740" type="line"/>
      <point x="235" y="740" type="line"/>
    </contour>
    <contour>
      <point x="67" y="608" type="line"/>
      <point x="569" y="608" type="line"/>
      <point x="569" y="740" type="line"/>
      <point x="67" y="740" type="line"/>
    </contour>
    <contour>
      <point x="67" y="0" type="line"/>
      <point x="569" y="0" type="line"/>
      <point x="569" y="132" type="line"/>
      <point x="67" y="132" type="line"/>
    </contour>
  </outline>
</glyph>
<glyph name="J" format="2">
  <advance width="648"/>
  <unicode hex="004A"/>
  <outline>
    <contour>
      <point x="203" y="-10" type="curve" smooth="yes"/>
      <point x="437" y="-10"/>
      <point x="581" y="90"/>
      <point x="581" y="316" type="curve" smooth="yes"/>
      <point x="581" y="740" type="line"/>
      <point x="411" y="740" type="line"/>
      <point x="411" y="337" type="line" smooth="yes"/>
      <point x="411" y="184"/>
      <point x="329" y="127"/>
      <point x="194" y="127" type="curve" smooth="yes"/>
      <point x="162" y="127"/>
      <point x="127" y="130"/>
      <point x="93" y="137" type="curve"/>
      <point x="67" y="5" type="line"/>
      <point x="108" y="-5"/>
      <point x="153" y="-10"/>
    </contour>
  </outline>
</glyph>
<glyph name="K" format="2">
  <advance width="806"/>
  <unicode hex="004B"/>
  <outline>
    <contour>
      <point x="67" y="0" type="line"/>
      <point x="235" y="0" type="line"/>
      <point x="235" y="740" type="line"/>
      <point x="67" y="740" type="line"/>
    </contour>
    <contour>
      <point x="188" y="316" type="line"/>
      <point x="271" y="316" type="line"/>
      <point x="565" y="0" type="line"/>
      <point x="773" y="0" type="line"/>
      <point x="405" y="424" type="line"/>
      <point x="281" y="393" type="line"/>
      <point x="188" y="393" type="line"/>
    </contour>
    <contour>
      <point x="255" y="373" type="line"/>
      <point x="368" y="321" type="line"/>
      <point x="767" y="740" type="line"/>
      <point x="578" y="740" type="line"/>
    </contour>
  </outline>
</glyph>
<glyph name="L" format="2">
  <advance width="669"/>
  <unicode hex="004C"/>
  <outline>
    <contour>
      <point x="67" y="0" type="line"/>
      <point x="235" y="0" type="line"/>
      <point x="235" y="740" type="line"/>
      <point x="67" y="740" type="line"/>
    </contour>
    <contour>
      <point x="118" y="0" type="line"/>
      <point x="641" y="0" type="line"/>
      <point x="641" y="126" type="line"/>
      <point x="118" y="126" type="line"/>
    </contour>
  </outline>
</glyph>
<glyph name="M" format="2">
  <advance width="890"/>
  <unicode hex="004D"/>
  <outline>
    <contour>
      <point x="67" y="0" type="line"/>
      <point x="202" y="0" type="line"/>
      <point x="202" y="740" type="line"/>
      <point x="67" y="740" type="line"/>
    </contour>
    <contour>
      <point x="822" y="0" type="line"/>
      <point x="822" y="740" type="line"/>
      <point x="687" y="740" type="line"/>
      <point x="687" y="0" type="line"/>
    </contour>
    <contour>
      <point x="751" y="561" type="line"/>
      <point x="687" y="740" type="line"/>
      <point x="428" y="406" type="line"/>
      <point x="462" y="406" type="line"/>
      <point x="202" y="740" type="line"/>
      <point x="139" y="561" type="line"/>
      <point x="416" y="215" type="line"/>
      <point x="474" y="215" type="line"/>
    </contour>
  </outline>
</glyph>
<glyph name="N" format="2">
  <advance width="842"/>
  <unicode hex="004E"/>
  <outline>
    <contour>
      <point x="67" y="0" type="line"/>
      <point x="201" y="0" type="line"/>
      <point x="201" y="740" type="line"/>
      <point x="67" y="740" type="line"/>
    </contour>
    <contour>
      <point x="128" y="589" type="line"/>
      <point x="642" y="0" type="line"/>
      <point x="715" y="151" type="line"/>
      <point x="201" y="740" type="line"/>
    </contour>
    <contour>
      <point x="642" y="0" type="line"/>
      <point x="775" y="0" type="line"/>
      <point x="775" y="740" type="line"/>
      <point x="642" y="740" type="line"/>
    </contour>
  </outline>
</glyph>
<glyph name="O" format="2">
  <advance width="922"/>
  <unicode hex="004F"/>
  <outline>
    <contour>
      <point x="432" y="-10" type="curve" smooth="yes"/>
      <point x="489" y="-10" type="line" smooth="yes"/>
      <point x="724" y="-10"/>
      <point x="873" y="107"/>
      <point x="873" y="372" type="curve" smooth="yes"/>
      <point x="873" y="636"/>
      <point x="724" y="750"/>
      <point x="489" y="750" type="curve" smooth="yes"/>
      <point x="432" y="750" type="line" smooth="yes"/>
      <point x="196" y="750"/>
      <point x="48" y="636"/>
      <point x="48" y="372" type="curve" smooth="yes"/>
      <point x="48" y="107"/>
      <point x="196" y="-10"/>
    </contour>
    <contour>
      <point x="443" y="117" type="line" smooth="yes"/>
      <point x="304" y="117"/>
      <point x="219" y="186"/>
      <point x="219" y="372" type="curve" smooth="yes"/>
      <point x="219" y="556"/>
      <point x="304" y="623"/>
      <point x="443" y="623" type="curve" smooth="yes"/>
      <point x="478" y="623" type="line" smooth="yes"/>
      <point x="618" y="623"/>
      <point x="703" y="556"/>
      <point x="703" y="372" type="curve" smooth="yes"/>
      <point x="703" y="186"/>
      <point x="618" y="117"/>
      <point x="478" y="117" type="curve" smooth="yes"/>
    </contour>
  </outline>
</glyph>
<glyph name="P" format="2">
  <advance width="771"/>
  <unicode hex="0050"/>
  <outline>
    <contour>
      <point x="67" y="0" type="line"/>
      <point x="235" y="0" type="line"/>
      <point x="235" y="740" type="line"/>
      <point x="67" y="740" type="line"/>
    </contour>
    <contour>
      <point x="179" y="610" type="line"/>
      <point x="407" y="610" type="line" smooth="yes"/>
      <point x="540" y="610"/>
      <point x="588" y="550"/>
      <point x="588" y="449" type="curve" smooth="yes"/>
      <point x="588" y="345"/>
      <point x="540" y="288"/>
      <point x="407" y="288" type="curve" smooth="yes"/>
      <point x="179" y="288" type="line"/>
      <point x="179" y="157" type="line"/>
      <point x="401" y="157" type="line" smooth="yes"/>
      <point x="665" y="157"/>
      <point x="743" y="273"/>
      <point x="743" y="449" type="curve" smooth="yes"/>
      <point x="743" y="625"/>
      <point x="665" y="740"/>
      <point x="401" y="740" type="curve" smooth="yes"/>
      <point x="179" y="740" type="line"/>
    </contour>
  </outline>
</glyph>
<glyph name="Q" format="2">
  <advance width="922"/>
  <unicode hex="0051"/>
  <outline>
    <contour>
      <point x="477" y="-130" type="line"/>
      <point x="645" y="-130" type="line"/>
      <point x="537" y="76" type="line"/>
      <point x="382" y="65" type="line"/>
    </contour>
    <component base="O"/>
  </outline>
</glyph>
<glyph name="R" format="2">
  <advance width="792"/>
  <unicode hex="0052"/>
  <outline>
    <contour>
      <point x="566" y="0" type="line"/>
      <point x="744" y="0" type="line"/>
      <point x="662" y="135" type="line" smooth="yes"/>
      <point x="620" y="191"/>
      <point x="586" y="222"/>
      <point x="537" y="221" type="curve"/>
      <point x="433" y="221" type="line"/>
    </contour>
    <contour>
      <point x="67" y="0" type="line"/>
      <point x="235" y="0" type="line"/>
      <point x="235" y="740" type="line"/>
      <point x="67" y="740" type="line"/>
    </contour>
    <contour>
      <point x="179" y="610" type="line"/>
      <point x="412" y="610" type="line" smooth="yes"/>
      <point x="542" y="610"/>
      <point x="590" y="550"/>
      <point x="590" y="449" type="curve" smooth="yes"/>
      <point x="590" y="345"/>
      <point x="542" y="288"/>
      <point x="412" y="288" type="curve" smooth="yes"/>
      <point x="179" y="288" type="line"/>
      <point x="179" y="181" type="line"/>
      <point x="406" y="181" type="line" smooth="yes"/>
      <point x="665" y="181"/>
      <point x="745" y="293"/>
      <point x="745" y="461" type="curve" smooth="yes"/>
      <point x="745" y="629"/>
      <point x="662" y="740"/>
      <point x="403" y="740" type="curve" smooth="yes"/>
      <point x="179" y="740" type="line"/>
    </contour>
  </outline>
</glyph>
<glyph name="S" format="2">
  <advance width="790"/>
  <unicode hex="0053"/>
  <outline>
    <contour>
      <point x="738" y="204" type="curve" smooth="yes"/>
      <point x="738" y="347"/>
      <point x="655" y="401"/>
      <point x="465" y="431" type="curve" smooth="yes"/>
      <point x="360" y="448" type="line" smooth="yes"/>
      <point x="248" y="469"/>
      <point x="203" y="494"/>
      <point x="203" y="546" type="curve" smooth="yes"/>
      <point x="203" y="596"/>
      <point x="253" y="630"/>
      <point x="374" y="630" type="curve" smooth="yes"/>
      <point x="429" y="630" type="line" smooth="yes"/>
      <point x="541" y="630"/>
      <point x="630" y="613"/>
      <point x="701" y="588" type="curve"/>
      <point x="727" y="702" type="line"/>
      <point x="655" y="728"/>
      <point x="548" y="750"/>
      <point x="448" y="750" type="curve" smooth="yes"/>
      <point x="407" y="750" type="line" smooth="yes"/>
      <point x="170" y="750"/>
      <point x="63" y="670"/>
      <point x="63" y="532" type="curve" smooth="yes"/>
      <point x="63" y="400"/>
      <point x="154" y="343"/>
      <point x="335" y="312" type="curve" smooth="yes"/>
      <point x="437" y="295" type="line" smooth="yes"/>
      <point x="554" y="270"/>
      <point x="595" y="253"/>
      <point x="595" y="198" type="curve" smooth="yes"/>
      <point x="595" y="145"/>
      <point x="543" y="110"/>
      <point x="408" y="110" type="curve" smooth="yes"/>
      <point x="355" y="110" type="line" smooth="yes"/>
      <point x="243" y="110"/>
      <point x="147" y="127"/>
      <point x="70" y="155" type="curve"/>
      <point x="45" y="40" type="line"/>
      <point x="125" y="12"/>
      <point x="238" y="-10"/>
      <point x="337" y="-10" type="curve" smooth="yes"/>
      <point x="380" y="-10" type="line" smooth="yes"/>
      <point x="645" y="-10"/>
      <point x="739" y="79"/>
    </contour>
  </outline>
</glyph>
<glyph name="T" format="2">
  <advance width="782"/>
  <unicode hex="0054"/>
  <outline>
    <contour>
      <point x="307" y="0" type="line"/>
      <point x="475" y="0" type="line"/>
      <point x="475" y="740" type="line"/>
      <point x="307" y="740" type="line"/>
    </contour>
    <contour>
      <point x="28" y="609" type="line"/>
      <point x="754" y="609" type="line"/>
      <point x="754" y="740" type="line"/>
      <point x="28" y="740" type="line"/>
    </contour>
  </outline>
</glyph>
<glyph name="U" format="2">
  <advance width="844"/>
  <unicode hex="0055"/>
  <outline>
    <contour>
      <point x="422" y="-10" type="curve" smooth="yes"/>
      <point x="646" y="-10"/>
      <point x="772" y="86"/>
      <point x="772" y="302" type="curve" smooth="yes"/>
      <point x="772" y="740" type="line"/>
      <point x="602" y="740" type="line"/>
      <point x="602" y="290" type="line" smooth="yes"/>
      <point x="602" y="167"/>
      <point x="534" y="122"/>
      <point x="422" y="122" type="curve" smooth="yes"/>
      <point x="311" y="122"/>
      <point x="242" y="167"/>
      <point x="242" y="290" type="curve" smooth="yes"/>
      <point x="242" y="740" type="line"/>
      <point x="72" y="740" type="line"/>
      <point x="72" y="302" type="line" smooth="yes"/>
      <point x="72" y="86"/>
      <point x="197" y="-10"/>
    </contour>
  </outline>
</glyph>
<glyph name="V" format="2">
  <advance width="814"/>
  <unicode hex="0056"/>
  <outline>
    <contour>
      <point x="790" y="740" type="line"/>
      <point x="652" y="740" type="line"/>
      <point x="412" y="0" type="line"/>
      <point x="533" y="0" type="line"/>
    </contour>
    <contour>
      <point x="209" y="740" type="line"/>
      <point x="22" y="740" type="line"/>
      <point x="280" y="0" type="line"/>
      <point x="456" y="0" type="line"/>
    </contour>
    <contour>
      <point x="504" y="127" type="line"/>
      <point x="332" y="127" type="line"/>
      <point x="332" y="0" type="line"/>
      <point x="504" y="0" type="line"/>
    </contour>
  </outline>
</glyph>
<glyph name="W" format="2">
  <advance width="948"/>
  <unicode hex="0057"/>
  <outline>
    <contour>
      <point x="924" y="740" type="line"/>
      <point x="776" y="740" type="line"/>
      <point x="650" y="145" type="line"/>
      <point x="669" y="145" type="line"/>
      <point x="538" y="740" type="line"/>
      <point x="425" y="740" type="line"/>
      <point x="300" y="143" type="line"/>
      <point x="321" y="143" type="line"/>
      <point x="188" y="740" type="line"/>
      <point x="23" y="740" type="line"/>
      <point x="191" y="0" type="line"/>
      <point x="351" y="0" type="line"/>
      <point x="475" y="561" type="line"/>
      <point x="448" y="560" type="line"/>
      <point x="586" y="0" type="line"/>
      <point x="760" y="0" type="line"/>
    </contour>
  </outline>
</glyph>
<glyph name="X" format="2">
  <advance width="774"/>
  <unicode hex="0058"/>
  <outline>
    <contour>
      <point x="552" y="0" type="line"/>
      <point x="752" y="0" type="line"/>
      <point x="451" y="410" type="line"/>
      <point x="228" y="740" type="line"/>
      <point x="27" y="740" type="line"/>
      <point x="317" y="349" type="line"/>
    </contour>
    <contour>
      <point x="23" y="0" type="line"/>
      <point x="176" y="0" type="line"/>
      <point x="381" y="330" type="line"/>
      <point x="465" y="339" type="line"/>
      <point x="745" y="740" type="line"/>
      <point x="592" y="740" type="line"/>
      <point x="388" y="426" type="line"/>
      <point x="303" y="412" type="line"/>
    </contour>
  </outline>
</glyph>
<glyph name="Y" format="2">
  <advance width="760"/>
  <unicode hex="0059"/>
  <outline>
    <contour>
      <point x="740" y="740" type="line"/>
      <point x="602" y="740" type="line"/>
      <point x="357" y="205" type="line"/>
      <point x="462" y="198" type="line"/>
    </contour>
    <contour>
      <point x="201" y="740" type="line"/>
      <point x="20" y="740" type="line"/>
      <point x="297" y="198" type="line"/>
      <point x="449" y="205" type="line"/>
    </contour>
    <contour>
      <point x="464" y="268" type="line"/>
      <point x="296" y="268" type="line"/>
      <point x="296" y="0" type="line"/>
      <point x="464" y="0" type="line"/>
    </contour>
  </outline>
</glyph>
<glyph name="Z" format="2">
  <advance width="805"/>
  <unicode hex="005A"/>
  <outline>
    <contour>
      <point x="67" y="126" type="line"/>
      <point x="255" y="97" type="line"/>
      <point x="738" y="614" type="line"/>
      <point x="549" y="643" type="line"/>
    </contour>
    <contour>
      <point x="67" y="614" type="line"/>
      <point x="738" y="614" type="line"/>
      <point x="738" y="740" type="line"/>
      <point x="67" y="740" type="line"/>
    </contour>
    <contour>
      <point x="67" y="0" type="line"/>
      <point x="738" y="0" type="line"/>
      <point x="738" y="126" type="line"/>
      <point x="67" y="126" type="line"/>
    </contour>
  </outline>
</glyph>
